<svg width="128" height="128" xmlns="http://www.w3.org/2000/svg"><g><path d="M118.15 85.07c-1.589 0-2.913 1.451-2.913 3.193v26.127c0 3.968-3.354 7.21-7.458 7.21H20.22c-4.28 0-7.458-3.436-7.458-8.032v-25.74c0-1.742-1.324-3.194-2.913-3.194-1.589 0-2.913 1.452-2.913 3.193v25.74c0 8.032 5.782 14.37 13.284 14.37h87.558c7.326 0 13.24-6.096 13.24-13.595V88.214c0-1.693-1.28-3.145-2.87-3.145zm1.412-69.528C119.43 7.026 112.766.107 104.646.107h-81.6C14.926.107 8.26 6.93 8.129 15.542.009 56.813.009 57.539.009 57.926c0 13.209 10.15 23.853 22.595 23.853 8.12 0 15.667-4.693 19.639-12.096h3.266C49.216 77.328 56.762 81.78 66.03 81.78c8.12 0 15.667-4.693 19.639-12.144h3.133c3.972 7.935 10.15 12.096 17.83 12.096 12.18 0 21.36-10.16 21.36-23.756 0-.533 0-1.162-8.43-42.433zm-12.886 59.85c-6.09 0-10.504-3.338-13.46-10.257l-.795-1.838H82.094l-.794 1.838c-2.692 6.29-8.694 10.306-15.27 10.306-7.59 0-13.637-3.822-16.02-10.16l-.706-1.984H38.712l-.794 1.887c-2.692 6.29-8.694 10.305-15.27 10.305-9.223 0-16.682-7.693-16.814-17.224.441-2.613 4.987-26.08 8.032-41.562l.088-.339v-.338c0-5.226 4.06-9.435 9.136-9.435h81.688c4.987 0 9.135 4.21 9.135 9.435v.338l.089.339c3.177 15.434 7.9 38.852 8.34 41.465-.22 10.016-6.663 17.225-15.666 17.225z"/><path d="M98.82 40.17H29.312c-1.588 0-2.912 1.45-2.912 3.193 0 1.741 1.324 3.193 2.912 3.193H98.82c1.589 0 2.913-1.452 2.913-3.193 0-1.742-1.324-3.194-2.913-3.194z"/></g></svg>